<svg width="754" height="352" viewBox="0 0 754 352" fill="none" xmlns="http://www.w3.org/2000/svg">
<path d="M127.369 293.997C129.195 296.06 133.095 299.339 139.5 299.549C145.905 299.339 149.805 296.06 151.631 293.997C146.447 293.614 141.778 292.378 139.5 291.692C137.222 292.378 132.553 293.614 127.369 293.997Z" fill="white"/>
<path d="M101.664 210.429L114.608 259.315C117.305 254.906 120.75 250.585 124.885 246.71L109.328 202.765L101.664 210.429Z" fill="#EC8115"/>
<path d="M139.5 280.878C141.332 280.625 152.804 279.304 153.711 277.739C155.573 274.53 155.123 269.849 154.171 266.816C153.271 263.947 145.283 262.382 139.5 262.115C133.717 262.382 125.729 263.947 124.829 266.816C123.877 269.849 123.427 274.53 125.289 277.739C126.196 279.304 137.668 280.625 139.5 280.878Z" fill="#231F20"/>
<path d="M121.531 265.781C123.407 259.8 135.719 258.814 139.474 258.652V258.65C139.482 258.65 139.491 258.651 139.5 258.651C139.508 258.651 139.518 258.65 139.526 258.65V258.652C143.281 258.814 155.593 259.8 157.469 265.781C158.686 269.662 159.124 275.296 156.702 279.473C155.25 281.976 152.907 283.645 149.925 284.299C142.496 285.927 140.689 286.656 140.633 286.678H138.367C138.311 286.656 136.504 285.927 129.075 284.299C126.093 283.645 123.75 281.976 122.298 279.473C119.876 275.296 120.313 269.662 121.531 265.781ZM117.054 286.645C125.021 291.896 137.343 288.684 139.474 288.067V288.052C139.481 288.054 139.492 288.057 139.5 288.059C139.508 288.057 139.519 288.054 139.526 288.052V288.067C141.656 288.684 153.978 291.896 161.945 286.645C164.003 285.289 165.004 281.993 164.693 277.6C163.825 265.336 156.606 249.366 139.5 240.542C122.394 249.366 115.175 265.336 114.306 277.6C113.995 281.993 114.997 285.289 117.054 286.645Z" fill="white"/>
<path d="M171.359 279.858C171.531 285.12 170.006 289.071 167.014 291.042C163.818 293.148 159.827 293.959 155.835 294.087L155.863 294.104C155.654 294.461 150.712 302.689 139.526 303.009V303.013C139.517 303.013 139.509 303.011 139.5 303.011C139.491 303.011 139.483 303.013 139.474 303.013V303.009C128.288 302.689 123.345 294.461 123.137 294.104L123.165 294.087C119.173 293.959 115.182 293.148 111.986 291.042C108.994 289.071 107.469 285.12 107.641 279.858C87.7444 258.579 59.69 258.137 43.0568 260.235C52.5693 275.665 107.26 337.586 139.028 345.301H139.972C171.74 337.586 226.431 275.665 235.943 260.235C219.31 258.137 191.256 258.579 171.359 279.858Z" fill="white"/>
<path d="M108.165 275.305C108.369 274.222 108.627 273.116 108.945 271.989L108.793 272.069C88.6109 239.797 70.2408 227.749 49.7911 218.987C38.8913 214.315 28.0153 211.815 19.733 210.476L31.2672 250.614C37.0902 250.233 45.1869 250.11 54.3442 251.132C70.1517 252.894 91.9372 258.562 108.165 275.305Z" fill="white"/>
<path d="M164.392 259.315L177.336 210.429L169.672 202.765L154.115 246.71C158.25 250.585 161.695 254.906 164.392 259.315Z" fill="#EC8115"/>
<path d="M170.207 272.069L170.055 271.989C170.373 273.116 170.63 274.222 170.835 275.305C187.063 258.562 208.848 252.894 224.656 251.132C233.813 250.11 241.91 250.233 247.732 250.614L259.267 210.476C250.985 211.815 240.109 214.315 229.208 218.987C208.759 227.749 190.389 239.797 170.207 272.069Z" fill="white"/>
<path d="M112.906 200.019L127.44 244.451C131.017 241.462 135.036 238.812 139.474 236.697V236.671C139.482 236.675 139.491 236.68 139.5 236.684C139.509 236.68 139.518 236.675 139.526 236.671V236.697C143.964 238.812 147.983 241.462 151.56 244.451L166.094 200.019C154.168 195.935 143.677 186.517 139.5 182.421C135.323 186.517 124.833 195.935 112.906 200.019Z" fill="#EC8115"/>
<path d="M249.731 93.4596C251.789 71.6838 252.432 44.3108 238.961 13.3982C214.36 51.3458 227.261 82.6574 227.261 82.6574L219.196 74.0154C219.196 88.7068 225.602 107.207 225.602 107.207C229.325 112.569 234.866 120.552 241.307 130.521C243.555 124.992 247.953 112.261 249.731 93.4596Z" fill="#EC8115"/>
<path d="M101.639 178.994C100.855 178.231 100.021 177.545 99.1397 176.96C98.587 177.256 98.2068 177.831 98.2068 178.502C98.2068 179.471 98.9927 180.257 99.9625 180.257C100.76 180.257 101.425 179.722 101.639 178.994Z" fill="white"/>
<path d="M92.0774 184.96C87.3536 182.115 86.2698 177.255 86.0632 174.402C85.3732 174.517 84.7309 174.658 84.1515 174.808C84.8586 177.878 87.1998 185.275 93.5079 186.847C101.135 188.747 105.351 185.872 106.287 185.127C106.183 184.95 106.078 184.774 105.972 184.598C104.163 185.439 101.201 186.533 98.015 186.533C96.0461 186.533 93.9937 186.115 92.0774 184.96Z" fill="white"/>
<path d="M51.7384 82.6574C51.7384 82.6574 64.6396 51.3458 40.0391 13.3982C26.5682 44.3108 27.2111 71.6838 29.2692 93.4596C31.0464 112.261 35.4452 124.992 37.6928 130.521C44.1343 120.552 49.6747 112.569 53.3976 107.207C53.3976 107.207 59.8039 88.7068 59.8039 74.0154L51.7384 82.6574Z" fill="#EC8115"/>
<path d="M180.793 178.502C180.793 177.831 180.413 177.256 179.86 176.96C178.979 177.545 178.145 178.231 177.361 178.994C177.575 179.722 178.24 180.257 179.038 180.257C180.007 180.257 180.793 179.471 180.793 178.502Z" fill="white"/>
<path d="M224.405 105.481C224.787 106.033 225.189 106.613 225.602 107.207C211.507 86.3741 213.147 61.0524 213.147 61.0524L218.044 66.2376C212.57 42.9042 236.048 7.1122 236.048 7.1122C227.706 11.3316 189.87 32.0378 167.461 61.6629L167.123 62.1101L166.358 62.2809C168.688 67.6902 172.809 77.0018 175.339 81.1872C178.916 87.1021 190.401 102.505 190.401 102.505C189.823 101.968 176.207 89.3037 172.381 82.9757C169.588 78.3545 164.234 68.1935 161.693 63.3255L139.526 68.2866V68.2985L139.5 68.2928L139.474 68.2985V68.2866L117.307 63.3255C114.766 68.1935 109.413 78.3545 106.619 82.9757C102.792 89.3037 89.1773 101.968 88.5996 102.505C88.5996 102.505 100.084 87.1021 103.661 81.1872C106.191 77.0018 110.312 67.6902 112.642 62.2809L111.877 62.1101L111.539 61.6629C89.1302 32.0378 51.2943 11.3316 42.9525 7.1122C42.9525 7.1122 66.43 42.9042 60.9566 66.2376L65.8535 61.0524C65.8535 61.0524 67.4926 86.3741 53.3976 107.207C53.8107 106.613 54.2132 106.033 54.5956 105.481L47.4273 122.281C36.3907 139.494 19.8233 164.862 12.4535 198.715C20.0543 200.197 31.1556 203.032 43.6516 208.375C64.1036 217.119 92.0207 234.48 110.384 267.739C111.025 266.11 111.78 264.462 112.635 262.813L97.3392 213.175C92.0655 216.044 81.9527 221.554 81.9527 221.554C85.5434 216.168 92.2681 211.94 96.1215 209.823C95.7935 209.829 95.4627 209.839 95.1404 209.839C85.9548 209.839 78.8909 207.307 74.0836 202.276C65.235 193.017 67.4713 178.873 67.5711 178.276C67.5711 178.276 67.6165 178.718 67.7323 179.48C68.496 184.233 72.6173 201.493 92.1035 200.188C103.286 199.439 106.975 193.681 107.856 188.06C107.807 187.96 107.757 187.859 107.706 187.758C106.298 188.679 102.799 190.537 97.4505 190.537C95.8968 190.537 94.1894 190.38 92.3316 189.998C86.7441 188.846 83.7577 184.539 82.1746 180.648L63.6984 171.888L67.6897 170.473C81.6242 165.53 93.1777 165.801 102.03 171.28C107.924 174.928 111.618 180.263 113.913 185.119L112.425 166.749L119.008 190.887C127.93 186.78 135.34 181.725 137.363 179.662L138.665 163.121L139.5 167.293L140.335 163.121L141.637 179.662C143.66 181.725 151.07 186.78 159.992 190.887L166.575 166.749L165.087 185.119C167.383 180.263 171.076 174.928 176.971 171.28C185.822 165.801 197.376 165.53 211.31 170.473L215.302 171.888L196.826 180.648C195.242 184.539 192.256 188.846 186.668 189.998C184.811 190.38 183.103 190.537 181.55 190.537C176.201 190.537 172.702 188.679 171.293 187.758C171.243 187.859 171.193 187.96 171.144 188.06C172.025 193.681 175.714 199.439 186.897 200.188C206.383 201.493 210.504 184.233 211.268 179.48C211.384 178.718 211.429 178.276 211.429 178.276C211.528 178.873 213.765 193.017 204.917 202.276C200.109 207.307 193.045 209.839 183.86 209.839C183.537 209.839 183.206 209.829 182.879 209.823C186.732 211.94 193.457 216.168 197.047 221.554C197.047 221.554 186.935 216.044 181.661 213.175L166.365 262.813C167.22 264.462 167.976 266.11 168.616 267.739C186.979 234.48 214.897 217.119 235.349 208.375C247.845 203.032 258.946 200.197 266.547 198.715C259.177 164.862 242.609 139.494 231.573 122.281L224.405 105.481Z" fill="#EC8115"/>
<path d="M172.714 185.127C173.649 185.872 177.865 188.747 185.492 186.847C191.8 185.275 194.141 177.878 194.849 174.808C194.269 174.658 193.627 174.517 192.937 174.402C192.73 177.255 191.647 182.115 186.923 184.96C185.006 186.115 182.954 186.533 180.985 186.533C177.799 186.533 174.837 185.439 173.028 184.598C172.922 184.774 172.817 184.95 172.714 185.127Z" fill="white"/>
<path d="M139.5 302.357V347.161C139.5 347.161 125.314 308.43 104.603 291.692C83.8916 274.955 53.534 279.494 53.534 279.494L37.3621 255.662L77.3662 258.65L91.8357 265.073C91.8357 265.073 71.3315 234.951 19.7331 227.858L12.4535 206.154C12.4535 206.154 83.1353 220.292 110.183 269.848L108.946 285.547L124.885 292.924C124.885 292.924 128.908 300.441 139.5 302.357Z" fill="#CECDCD"/>
<path d="M63.6984 171.888L79.6358 182.421C79.6358 182.421 81.0543 188.705 88.431 192.393C88.431 192.393 73.2767 193.945 67.7323 179.48C67.7323 179.48 61.4779 203.696 80.0613 213.436L75.2382 223.744L93.2542 221.616L114.251 263.464L102.475 218.495L108.007 213.436L126.875 247.86L114.912 206.153C114.912 206.153 131.461 198.257 139.5 185.017V169.317L135.149 137.425C135.149 137.425 131.567 173.918 131.083 174.402C130.599 174.886 123.233 180.257 122.855 180.257C122.477 180.257 110.088 153.24 110.088 153.24L110.656 179.437L105.359 188.137L99.9226 188.421L91.2681 187.486L82.7566 176.96L63.6984 171.888Z" fill="#D6631C"/>
<path d="M9.74664 189.84C9.74664 189.84 68.5338 200.083 106.286 247.591L107.535 246.678L114.251 263.464L110.183 269.848L84.9315 237.977L47.7647 214.05L3.78859 198.54L9.74664 189.84Z" fill="#D6631C"/>
<path d="M37.9294 133.238C37.9294 133.238 53.6989 110.35 59.2081 93.9436C64.7174 77.5374 62.1872 68.8347 62.1872 68.8347C62.1872 68.8347 57.364 71.9595 56.7966 71.9595C56.2291 71.9595 58.357 20.7447 40.341 12.3751C40.341 12.3751 7.85546 55.3581 37.9294 133.238Z" fill="#D6631C"/>
<path d="M72.3539 21.5011C72.3539 21.5011 93.5379 43.631 95.2402 61.9784C96.9425 80.3252 79.3521 112.101 79.3521 112.101C79.3521 112.101 110.372 93.9436 121.531 63.1133L113.209 59.3302C113.209 59.3302 82.5677 26.9865 72.3539 21.5011Z" fill="#D6631C"/>
<path d="M139.5 300.276V283.324C139.5 283.324 125.645 287.864 119.072 281.291C112.5 274.718 120.814 257.781 120.814 257.781C120.814 257.781 110.088 271.858 112.168 280.878C114.249 289.897 124.357 292.679 124.357 292.679C124.357 292.679 127.962 300.276 139.5 300.276Z" fill="#CECDCD"/>
<path d="M139.5 302.357V347.161C139.5 347.161 153.686 308.43 174.397 291.692C195.108 274.955 225.466 279.494 225.466 279.494L241.638 255.662L201.634 258.65L187.164 265.073C187.164 265.073 207.669 234.951 259.267 227.858L266.547 206.154C266.547 206.154 195.865 220.292 168.818 269.848L170.055 285.547L154.115 292.924C154.115 292.924 150.092 300.441 139.5 302.357Z" fill="#CECDCD"/>
<path d="M215.302 171.888L199.364 182.421C199.364 182.421 197.946 188.705 190.569 192.393C190.569 192.393 205.723 193.945 211.268 179.48C211.268 179.48 217.522 203.696 198.939 213.436L203.762 223.744L185.746 221.616L164.749 263.464L176.525 218.495L170.993 213.436L152.125 247.86L164.087 206.153C164.087 206.153 147.539 198.257 139.5 185.017V169.317L143.851 137.425C143.851 137.425 147.433 173.918 147.917 174.402C148.401 174.886 155.767 180.257 156.145 180.257C156.523 180.257 168.912 153.24 168.912 153.24L168.344 179.437L173.641 188.137L179.077 188.421L187.732 187.486L196.243 176.96L215.302 171.888Z" fill="#D6631C"/>
<path d="M269.253 189.84C269.253 189.84 210.466 200.083 172.714 247.591L171.465 246.678L164.749 263.464L168.818 269.848L194.068 237.977L231.235 214.05L275.211 198.54L269.253 189.84Z" fill="#D6631C"/>
<path d="M241.07 133.238C241.07 133.238 225.301 110.35 219.792 93.9436C214.282 77.5374 216.813 68.8347 216.813 68.8347C216.813 68.8347 221.636 71.9595 222.203 71.9595C222.771 71.9595 220.643 20.7447 238.659 12.3751C238.659 12.3751 271.144 55.3581 241.07 133.238Z" fill="#D6631C"/>
<path d="M206.646 21.5011C206.646 21.5011 185.462 43.631 183.76 61.9784C182.058 80.3252 199.648 112.101 199.648 112.101C199.648 112.101 168.628 93.9436 157.469 63.1133L165.791 59.3302C165.791 59.3302 196.432 26.9865 206.646 21.5011Z" fill="#D6631C"/>
<path d="M139.5 300.276V283.324C139.5 283.324 153.355 287.864 159.928 281.291C166.5 274.718 158.186 257.781 158.186 257.781C158.186 257.781 168.912 271.858 166.832 280.878C164.751 289.897 154.643 292.679 154.643 292.679C154.643 292.679 151.038 300.276 139.5 300.276Z" fill="#CECDCD"/>
<path d="M98.2068 178.502C98.2068 177.831 98.587 177.256 99.1397 176.96C100.021 177.545 100.855 178.231 101.639 178.994C101.425 179.722 100.76 180.257 99.9625 180.257C98.9927 180.257 98.2068 179.471 98.2068 178.502ZM105.972 184.598C106.078 184.774 106.183 184.95 106.287 185.127C105.351 185.872 101.135 188.747 93.5079 186.847C87.1998 185.275 84.8586 177.878 84.1515 174.808C84.7309 174.658 85.3732 174.517 86.0632 174.402C86.2698 177.255 87.3536 182.115 92.0774 184.96C93.9937 186.115 96.0461 186.533 98.015 186.533C101.201 186.533 104.163 185.439 105.972 184.598ZM177.361 178.994C178.145 178.231 178.979 177.545 179.86 176.96C180.413 177.256 180.793 177.831 180.793 178.502C180.793 179.471 180.007 180.257 179.038 180.257C178.24 180.257 177.575 179.722 177.361 178.994ZM180.985 186.533C182.954 186.533 185.006 186.115 186.923 184.96C191.647 182.115 192.73 177.255 192.937 174.402C193.627 174.517 194.269 174.658 194.849 174.808C194.141 177.878 191.8 185.275 185.492 186.847C177.865 188.747 173.649 185.872 172.714 185.127C172.817 184.95 172.922 184.774 173.028 184.598C174.837 185.439 177.799 186.533 180.985 186.533ZM235.349 208.375C214.897 217.119 186.979 234.48 168.616 267.739C167.976 266.11 167.22 264.462 166.365 262.813L181.661 213.175C186.935 216.044 197.047 221.554 197.047 221.554C193.457 216.168 186.732 211.94 182.879 209.823C183.206 209.829 183.537 209.839 183.86 209.839C193.045 209.839 200.109 207.307 204.917 202.276C213.765 193.017 211.528 178.873 211.429 178.276C211.429 178.276 211.384 178.718 211.268 179.48C210.504 184.233 206.383 201.493 186.897 200.188C175.714 199.439 172.025 193.681 171.144 188.06C171.193 187.96 171.243 187.859 171.293 187.758C172.702 188.679 176.201 190.537 181.55 190.537C183.103 190.537 184.811 190.38 186.668 189.998C192.256 188.846 195.242 184.539 196.826 180.648L215.302 171.888L211.31 170.473C197.376 165.53 185.822 165.801 176.971 171.28C171.076 174.928 167.383 180.263 165.087 185.119L166.575 166.749L159.992 190.887C151.07 186.78 143.66 181.725 141.637 179.662L140.335 163.121L139.5 167.293L138.665 163.121L137.363 179.662C135.34 181.725 127.93 186.78 119.008 190.887L112.425 166.749L113.913 185.119C111.618 180.263 107.924 174.928 102.03 171.28C93.1777 165.801 81.6242 165.53 67.6897 170.473L63.6984 171.888L82.1746 180.648C83.7577 184.539 86.7441 188.846 92.3316 189.998C94.1894 190.38 95.8968 190.537 97.4505 190.537C102.799 190.537 106.298 188.679 107.706 187.758C107.757 187.859 107.807 187.96 107.856 188.06C106.975 193.681 103.286 199.439 92.1035 200.188C72.6173 201.493 68.496 184.233 67.7323 179.48C67.6165 178.718 67.5711 178.276 67.5711 178.276C67.4713 178.873 65.235 193.017 74.0836 202.276C78.8909 207.307 85.9548 209.839 95.1404 209.839C95.4627 209.839 95.7935 209.829 96.1215 209.823C92.2681 211.94 85.5434 216.168 81.9527 221.554C81.9527 221.554 92.0655 216.044 97.3392 213.175L112.635 262.813C111.78 264.462 111.025 266.11 110.384 267.739C92.0207 234.48 64.1036 217.119 43.6516 208.375C31.1556 203.032 20.0543 200.197 12.4535 198.715C19.8233 164.862 36.3907 139.494 47.4273 122.281L54.5956 105.481C54.2132 106.033 53.8107 106.613 53.3976 107.207C49.6747 112.569 44.1343 120.552 37.6928 130.521C35.4452 124.992 31.0464 112.261 29.2692 93.4596C27.2111 71.6838 26.5682 44.3108 40.0391 13.3982C64.6396 51.3458 51.7384 82.6574 51.7384 82.6574L59.8039 74.0154C59.8039 88.7068 53.3976 107.207 53.3976 107.207C67.4926 86.3741 65.8535 61.0524 65.8535 61.0524L60.9566 66.2376C66.43 42.9042 42.9525 7.1122 42.9525 7.1122C51.2943 11.3316 89.1302 32.0378 111.539 61.6629L111.877 62.1101L112.642 62.2809C110.312 67.6902 106.191 77.0018 103.661 81.1872C100.084 87.1021 88.5996 102.505 88.5996 102.505C89.1773 101.968 102.792 89.3037 106.619 82.9757C109.413 78.3545 114.766 68.1935 117.307 63.3255L139.474 68.2866V68.2985L139.5 68.2928L139.526 68.2985V68.2866L161.693 63.3255C164.234 68.1935 169.588 78.3545 172.381 82.9757C176.207 89.3037 189.823 101.968 190.401 102.505C190.401 102.505 178.916 87.1021 175.339 81.1872C172.809 77.0018 168.688 67.6902 166.358 62.2809L167.123 62.1101L167.461 61.6629C189.87 32.0378 227.706 11.3316 236.048 7.1122C236.048 7.1122 212.57 42.9042 218.044 66.2376L213.147 61.0524C213.147 61.0524 211.507 86.3741 225.602 107.207C225.602 107.207 219.196 88.7068 219.196 74.0154L227.261 82.6574C227.261 82.6574 214.36 51.3458 238.961 13.3982C252.432 44.3108 251.789 71.6838 249.731 93.4596C247.953 112.261 243.555 124.992 241.307 130.521C234.866 120.552 229.325 112.569 225.602 107.207C225.189 106.613 224.787 106.033 224.405 105.481L231.573 122.281C242.609 139.494 259.177 164.862 266.547 198.715C258.946 200.197 247.845 203.032 235.349 208.375ZM247.732 250.614C241.91 250.233 233.813 250.11 224.656 251.132C208.848 252.894 187.063 258.562 170.835 275.305C170.63 274.222 170.373 273.116 170.055 271.989L170.207 272.069C190.389 239.797 208.759 227.749 229.208 218.987C240.109 214.315 250.985 211.815 259.267 210.476L247.732 250.614ZM151.631 293.997C149.805 296.06 145.905 299.339 139.5 299.549C133.095 299.339 129.195 296.06 127.369 293.997C132.553 293.614 137.222 292.378 139.5 291.692C141.778 292.378 146.447 293.614 151.631 293.997ZM114.306 277.6C115.175 265.336 122.394 249.366 139.5 240.542C156.606 249.366 163.825 265.336 164.693 277.6C165.004 281.993 164.003 285.289 161.945 286.645C153.978 291.896 141.656 288.684 139.526 288.067V288.052C139.519 288.054 139.508 288.057 139.5 288.059C139.492 288.057 139.481 288.054 139.474 288.052V288.067C137.343 288.684 125.021 291.896 117.054 286.645C114.997 285.289 113.995 281.993 114.306 277.6ZM124.885 246.71C120.75 250.585 117.305 254.906 114.608 259.315L101.664 210.429L109.328 202.765L124.885 246.71ZM169.672 202.765L177.336 210.429L164.392 259.315C161.695 254.906 158.25 250.585 154.115 246.71L169.672 202.765ZM151.56 244.451C147.983 241.462 143.964 238.812 139.526 236.697V236.671C139.518 236.675 139.509 236.68 139.5 236.684C139.491 236.68 139.482 236.675 139.474 236.671V236.697C135.036 238.812 131.017 241.462 127.44 244.451L112.906 200.019C124.833 195.935 135.323 186.517 139.5 182.421C143.677 186.517 154.168 195.935 166.094 200.019L151.56 244.451ZM139.972 345.301H139.028C107.26 337.586 52.5693 275.665 43.0568 260.235C59.69 258.137 87.7444 258.579 107.641 279.858C107.469 285.12 108.994 289.071 111.986 291.042C115.182 293.148 119.173 293.959 123.165 294.087L123.137 294.104C123.345 294.461 128.288 302.689 139.474 303.009V303.013C139.483 303.013 139.491 303.011 139.5 303.011C139.509 303.011 139.517 303.013 139.526 303.013V303.009C150.712 302.689 155.654 294.461 155.863 294.104L155.835 294.087C159.827 293.959 163.818 293.148 167.014 291.042C170.006 289.071 171.531 285.12 171.359 279.858C191.256 258.579 219.31 258.137 235.943 260.235C226.431 275.665 171.74 337.586 139.972 345.301ZM31.2672 250.614L19.733 210.476C28.0153 211.815 38.8913 214.315 49.7911 218.987C70.2408 227.749 88.6109 239.797 108.793 272.069L108.945 271.989C108.627 273.116 108.369 274.222 108.165 275.305C91.9372 258.562 70.1517 252.894 54.3442 251.132C45.1869 250.11 37.0902 250.233 31.2672 250.614ZM246.857 139.263C248.486 134.448 253.551 118.166 255.627 96.324C257.915 72.245 256.95 36.2488 239.352 1.50598L238.59 7.62939e-06L237.066 0.727447C236.584 0.957257 188.856 23.9939 163.316 57.4015L139.5 64.6675L115.684 57.4015C90.1441 23.9939 42.4151 0.957257 41.9344 0.727447L40.4103 7.62939e-06L39.6477 1.50598C22.0504 36.2488 21.0847 72.245 23.3731 96.324C25.4488 118.166 30.5143 134.448 32.1434 139.263C21.9789 155.572 10.3869 175.868 0.293926 198.179L0 198.828L3.77229 208.941L8.98587 209.32L20.6438 254.17L20.7907 254.368C20.9071 254.524 23.519 258.001 28.1532 263.588L32.8198 262.287C50.2065 283.316 89.891 333.012 137.794 351.308H141.206C189.109 333.012 228.794 283.316 246.18 262.287L250.847 263.588C255.481 258.001 258.093 254.524 258.209 254.368L258.356 254.17L270.014 209.32L275.228 208.941L279 198.828L278.706 198.179C268.613 175.868 257.021 155.572 246.857 139.263Z" fill="#231F20"/>
<path d="M124.829 266.816C125.729 263.947 133.717 262.382 139.5 262.115C145.283 262.382 153.271 263.947 154.171 266.816C155.123 269.849 155.573 274.53 153.711 277.739C152.804 279.304 141.332 280.625 139.5 280.878C137.668 280.625 126.196 279.304 125.289 277.739C123.427 274.53 123.877 269.849 124.829 266.816ZM129.075 284.299C136.504 285.927 138.311 286.656 138.367 286.678H140.633C140.689 286.656 142.496 285.927 149.925 284.299C152.907 283.645 155.25 281.976 156.702 279.473C159.124 275.296 158.686 269.662 157.469 265.781C155.593 259.8 143.281 258.814 139.526 258.652V258.65C139.518 258.65 139.508 258.651 139.5 258.651C139.491 258.651 139.482 258.65 139.474 258.65V258.652C135.719 258.814 123.407 259.8 121.531 265.781C120.313 269.662 119.876 275.296 122.298 279.473C123.75 281.976 126.093 283.645 129.075 284.299Z" fill="#231F20"/>
<path d="M291.219 203V113.4H328.083C336.019 113.4 342.803 114.68 348.435 117.24C354.153 119.8 358.547 123.469 361.619 128.248C364.691 133.027 366.227 138.701 366.227 145.272C366.227 151.843 364.691 157.517 361.619 162.296C358.547 166.989 354.153 170.616 348.435 173.176C342.803 175.651 336.019 176.888 328.083 176.888H300.435L307.859 169.336V203H291.219ZM349.843 203L327.187 170.488H344.979L367.763 203H349.843ZM307.859 171.128L300.435 163.192H327.315C334.654 163.192 340.158 161.613 343.827 158.456C347.582 155.299 349.459 150.904 349.459 145.272C349.459 139.555 347.582 135.16 343.827 132.088C340.158 129.016 334.654 127.48 327.315 127.48H300.435L307.859 119.288V171.128Z" fill="#EC8115"/>
<path d="M424.795 203V189.176L423.899 186.232V162.04C423.899 157.347 422.491 153.72 419.675 151.16C416.859 148.515 412.593 147.192 406.875 147.192C403.035 147.192 399.238 147.789 395.483 148.984C391.814 150.179 388.699 151.843 386.139 153.976L379.867 142.328C383.537 139.512 387.889 137.421 392.923 136.056C398.043 134.605 403.334 133.88 408.795 133.88C418.694 133.88 426.331 136.269 431.707 141.048C437.169 145.741 439.899 153.037 439.899 162.936V203H424.795ZM403.291 203.896C398.171 203.896 393.691 203.043 389.851 201.336C386.011 199.544 383.025 197.112 380.891 194.04C378.843 190.883 377.819 187.341 377.819 183.416C377.819 179.576 378.715 176.12 380.507 173.048C382.385 169.976 385.414 167.544 389.595 165.752C393.777 163.96 399.323 163.064 406.235 163.064H426.075V173.688H407.387C401.926 173.688 398.257 174.584 396.379 176.376C394.502 178.083 393.563 180.216 393.563 182.776C393.563 185.677 394.715 187.981 397.019 189.688C399.323 191.395 402.523 192.248 406.619 192.248C410.545 192.248 414.043 191.352 417.115 189.56C420.273 187.768 422.534 185.123 423.899 181.624L426.587 191.224C425.051 195.235 422.278 198.349 418.267 200.568C414.342 202.787 409.35 203.896 403.291 203.896Z" fill="#EC8115"/>
<path d="M498.321 203.896C492.775 203.896 487.697 202.616 483.089 200.056C478.567 197.496 474.94 193.656 472.209 188.536C469.564 183.331 468.241 176.76 468.241 168.824C468.241 160.803 469.521 154.232 472.081 149.112C474.727 143.992 478.311 140.195 482.833 137.72C487.356 135.16 492.519 133.88 498.321 133.88C505.063 133.88 510.993 135.331 516.113 138.232C521.319 141.133 525.415 145.187 528.401 150.392C531.473 155.597 533.009 161.741 533.009 168.824C533.009 175.907 531.473 182.093 528.401 187.384C525.415 192.589 521.319 196.643 516.113 199.544C510.993 202.445 505.063 203.896 498.321 203.896ZM460.433 227.832V134.648H475.665V150.776L475.153 168.952L476.433 187.128V227.832H460.433ZM496.529 190.2C500.369 190.2 503.783 189.347 506.769 187.64C509.841 185.933 512.273 183.459 514.065 180.216C515.857 176.973 516.753 173.176 516.753 168.824C516.753 164.387 515.857 160.589 514.065 157.432C512.273 154.189 509.841 151.715 506.769 150.008C503.783 148.301 500.369 147.448 496.529 147.448C492.689 147.448 489.233 148.301 486.161 150.008C483.089 151.715 480.657 154.189 478.865 157.432C477.073 160.589 476.177 164.387 476.177 168.824C476.177 173.176 477.073 176.973 478.865 180.216C480.657 183.459 483.089 185.933 486.161 187.64C489.233 189.347 492.689 190.2 496.529 190.2Z" fill="#EC8115"/>
<path d="M578.903 203.896C571.906 203.896 565.677 202.403 560.215 199.416C554.754 196.344 550.445 192.163 547.287 186.872C544.13 181.581 542.551 175.565 542.551 168.824C542.551 161.997 544.13 155.981 547.287 150.776C550.445 145.485 554.754 141.347 560.215 138.36C565.677 135.373 571.906 133.88 578.903 133.88C585.986 133.88 592.258 135.373 597.719 138.36C603.266 141.347 607.576 145.443 610.647 150.648C613.805 155.853 615.383 161.912 615.383 168.824C615.383 175.565 613.805 181.581 610.647 186.872C607.576 192.163 603.266 196.344 597.719 199.416C592.258 202.403 585.986 203.896 578.903 203.896ZM578.903 190.2C582.829 190.2 586.327 189.347 589.399 187.64C592.471 185.933 594.861 183.459 596.567 180.216C598.359 176.973 599.255 173.176 599.255 168.824C599.255 164.387 598.359 160.589 596.567 157.432C594.861 154.189 592.471 151.715 589.399 150.008C586.327 148.301 582.871 147.448 579.031 147.448C575.106 147.448 571.607 148.301 568.535 150.008C565.549 151.715 563.159 154.189 561.367 157.432C559.576 160.589 558.679 164.387 558.679 168.824C558.679 173.176 559.576 176.973 561.367 180.216C563.159 183.459 565.549 185.933 568.535 187.64C571.607 189.347 575.063 190.2 578.903 190.2Z" fill="#EC8115"/>
<path d="M651.803 203.896C646.086 203.896 640.582 203.171 635.291 201.72C630.086 200.184 625.947 198.349 622.875 196.216L629.019 184.056C632.091 186.019 635.761 187.64 640.027 188.92C644.294 190.2 648.561 190.84 652.827 190.84C657.862 190.84 661.489 190.157 663.707 188.792C666.011 187.427 667.163 185.592 667.163 183.288C667.163 181.411 666.396 180.003 664.859 179.064C663.323 178.04 661.318 177.272 658.843 176.76C656.369 176.248 653.595 175.779 650.523 175.352C647.537 174.925 644.507 174.371 641.435 173.688C638.449 172.92 635.718 171.853 633.243 170.488C630.769 169.037 628.763 167.117 627.227 164.728C625.691 162.339 624.923 159.181 624.923 155.256C624.923 150.904 626.161 147.149 628.635 143.992C631.11 140.749 634.566 138.275 639.003 136.568C643.526 134.776 648.859 133.88 655.003 133.88C659.611 133.88 664.262 134.392 668.955 135.416C673.649 136.44 677.531 137.891 680.603 139.768L674.459 151.928C671.217 149.965 667.931 148.643 664.603 147.96C661.361 147.192 658.118 146.808 654.875 146.808C650.011 146.808 646.385 147.533 643.995 148.984C641.691 150.435 640.539 152.269 640.539 154.488C640.539 156.536 641.307 158.072 642.843 159.096C644.379 160.12 646.385 160.931 648.859 161.528C651.334 162.125 654.065 162.637 657.051 163.064C660.123 163.405 663.153 163.96 666.139 164.728C669.126 165.496 671.857 166.563 674.331 167.928C676.891 169.208 678.939 171.043 680.475 173.432C682.012 175.821 682.779 178.936 682.779 182.776C682.779 187.043 681.499 190.755 678.939 193.912C676.465 197.069 672.923 199.544 668.315 201.336C663.707 203.043 658.203 203.896 651.803 203.896Z" fill="#EC8115"/>
<path d="M738.67 203V189.176L737.774 186.232V162.04C737.774 157.347 736.366 153.72 733.55 151.16C730.734 148.515 726.468 147.192 720.75 147.192C716.91 147.192 713.113 147.789 709.358 148.984C705.689 150.179 702.574 151.843 700.014 153.976L693.742 142.328C697.412 139.512 701.764 137.421 706.798 136.056C711.918 134.605 717.209 133.88 722.67 133.88C732.569 133.88 740.206 136.269 745.582 141.048C751.044 145.741 753.774 153.037 753.774 162.936V203H738.67ZM717.166 203.896C712.046 203.896 707.566 203.043 703.726 201.336C699.886 199.544 696.9 197.112 694.766 194.04C692.718 190.883 691.694 187.341 691.694 183.416C691.694 179.576 692.59 176.12 694.382 173.048C696.26 169.976 699.289 167.544 703.47 165.752C707.652 163.96 713.198 163.064 720.11 163.064H739.951V173.688H721.262C715.801 173.688 712.132 174.584 710.254 176.376C708.377 178.083 707.438 180.216 707.438 182.776C707.438 185.677 708.59 187.981 710.894 189.688C713.198 191.395 716.398 192.248 720.494 192.248C724.42 192.248 727.918 191.352 730.99 189.56C734.148 187.768 736.409 185.123 737.774 181.624L740.462 191.224C738.926 195.235 736.153 198.349 732.142 200.568C728.217 202.787 723.225 203.896 717.166 203.896Z" fill="#EC8115"/>
<path d="M318.211 265V242.6H321.635L331.427 258.952H329.635L339.267 242.6H342.691L342.723 265H338.787L338.755 248.776H339.587L331.395 262.44H329.539L321.219 248.776H322.179V265H318.211Z" fill="white"/>
<path d="M366.918 265V261.544L366.694 260.808V254.76C366.694 253.587 366.342 252.68 365.638 252.04C364.934 251.379 363.867 251.048 362.438 251.048C361.478 251.048 360.528 251.197 359.59 251.496C358.672 251.795 357.894 252.211 357.254 252.744L355.686 249.832C356.603 249.128 357.691 248.605 358.95 248.264C360.23 247.901 361.552 247.72 362.918 247.72C365.392 247.72 367.302 248.317 368.646 249.512C370.011 250.685 370.694 252.509 370.694 254.984V265H366.918ZM361.542 265.224C360.262 265.224 359.142 265.011 358.182 264.584C357.222 264.136 356.475 263.528 355.942 262.76C355.43 261.971 355.174 261.085 355.174 260.104C355.174 259.144 355.398 258.28 355.846 257.512C356.315 256.744 357.072 256.136 358.118 255.688C359.163 255.24 360.55 255.016 362.278 255.016H367.238V257.672H362.566C361.2 257.672 360.283 257.896 359.814 258.344C359.344 258.771 359.11 259.304 359.11 259.944C359.11 260.669 359.398 261.245 359.974 261.672C360.55 262.099 361.35 262.312 362.374 262.312C363.355 262.312 364.23 262.088 364.998 261.64C365.787 261.192 366.352 260.531 366.694 259.656L367.366 262.056C366.982 263.059 366.288 263.837 365.286 264.392C364.304 264.947 363.056 265.224 361.542 265.224Z" fill="white"/>
<path d="M383.827 265V247.912H387.635V252.616L387.187 251.24C387.699 250.088 388.499 249.213 389.587 248.616C390.697 248.019 392.073 247.72 393.715 247.72V251.528C393.545 251.485 393.385 251.464 393.235 251.464C393.086 251.443 392.937 251.432 392.787 251.432C391.273 251.432 390.067 251.88 389.171 252.776C388.275 253.651 387.827 254.963 387.827 256.712V265H383.827Z" fill="white"/>
<path d="M408.372 261.192L408.468 256.168L417.396 247.912H422.196L414.612 255.528L412.5 257.288L408.372 261.192ZM405.108 265V241.256H409.108V265H405.108ZM418.004 265L411.764 257.288L414.292 254.088L422.868 265H418.004Z" fill="white"/>
<path d="M440.797 265.224C438.898 265.224 437.234 264.851 435.805 264.104C434.397 263.336 433.298 262.291 432.509 260.968C431.741 259.645 431.357 258.141 431.357 256.456C431.357 254.749 431.73 253.245 432.477 251.944C433.245 250.621 434.29 249.587 435.613 248.84C436.957 248.093 438.482 247.72 440.189 247.72C441.853 247.72 443.335 248.083 444.637 248.808C445.938 249.533 446.962 250.557 447.709 251.88C448.455 253.203 448.829 254.76 448.829 256.552C448.829 256.723 448.818 256.915 448.797 257.128C448.797 257.341 448.786 257.544 448.765 257.736H434.525V255.08H446.653L445.085 255.912C445.106 254.931 444.903 254.067 444.477 253.32C444.05 252.573 443.463 251.987 442.717 251.56C441.991 251.133 441.149 250.92 440.189 250.92C439.207 250.92 438.343 251.133 437.597 251.56C436.871 251.987 436.295 252.584 435.869 253.352C435.463 254.099 435.261 254.984 435.261 256.008V256.648C435.261 257.672 435.495 258.579 435.965 259.368C436.434 260.157 437.095 260.765 437.949 261.192C438.802 261.619 439.783 261.832 440.893 261.832C441.853 261.832 442.717 261.683 443.485 261.384C444.253 261.085 444.935 260.616 445.533 259.976L447.677 262.44C446.909 263.336 445.938 264.029 444.765 264.52C443.613 264.989 442.29 265.224 440.797 265.224Z" fill="white"/>
<path d="M467.103 265.224C465.226 265.224 463.775 264.744 462.751 263.784C461.727 262.803 461.215 261.363 461.215 259.464V244.136H465.215V259.368C465.215 260.179 465.418 260.808 465.823 261.256C466.25 261.704 466.836 261.928 467.583 261.928C468.479 261.928 469.226 261.693 469.823 261.224L470.943 264.072C470.474 264.456 469.898 264.744 469.215 264.936C468.532 265.128 467.828 265.224 467.103 265.224ZM458.399 251.24V248.04H469.791V251.24H458.399Z" fill="white"/>
<path d="M482.233 265V247.912H486.233V265H482.233ZM484.249 245.096C483.503 245.096 482.884 244.861 482.393 244.392C481.924 243.923 481.689 243.357 481.689 242.696C481.689 242.013 481.924 241.448 482.393 241C482.884 240.531 483.503 240.296 484.249 240.296C484.996 240.296 485.604 240.52 486.073 240.968C486.564 241.395 486.809 241.939 486.809 242.6C486.809 243.304 486.575 243.901 486.105 244.392C485.636 244.861 485.017 245.096 484.249 245.096Z" fill="white"/>
<path d="M509.179 247.72C510.545 247.72 511.761 247.987 512.827 248.52C513.915 249.053 514.769 249.875 515.387 250.984C516.006 252.072 516.315 253.48 516.315 255.208V265H512.315V255.72C512.315 254.205 511.953 253.075 511.227 252.328C510.523 251.581 509.531 251.208 508.251 251.208C507.313 251.208 506.481 251.4 505.755 251.784C505.03 252.168 504.465 252.744 504.059 253.512C503.675 254.259 503.483 255.208 503.483 256.36V265H499.483V247.912H503.291V252.52L502.619 251.112C503.217 250.024 504.081 249.192 505.211 248.616C506.363 248.019 507.686 247.72 509.179 247.72Z" fill="white"/>
<path d="M537.165 271.432C535.586 271.432 534.04 271.219 532.525 270.792C531.032 270.387 529.805 269.789 528.845 269L530.637 265.992C531.384 266.611 532.322 267.101 533.453 267.464C534.605 267.848 535.768 268.04 536.941 268.04C538.818 268.04 540.194 267.603 541.069 266.728C541.944 265.875 542.381 264.584 542.381 262.856V259.816L542.701 255.944L542.573 252.072V247.912H546.381V262.408C546.381 265.501 545.592 267.773 544.013 269.224C542.434 270.696 540.152 271.432 537.165 271.432ZM536.653 264.232C535.032 264.232 533.56 263.891 532.237 263.208C530.936 262.504 529.901 261.533 529.133 260.296C528.386 259.059 528.013 257.608 528.013 255.944C528.013 254.301 528.386 252.861 529.133 251.624C529.901 250.387 530.936 249.427 532.237 248.744C533.56 248.061 535.032 247.72 536.653 247.72C538.104 247.72 539.405 248.008 540.557 248.584C541.709 249.16 542.626 250.056 543.309 251.272C544.013 252.488 544.365 254.045 544.365 255.944C544.365 257.843 544.013 259.411 543.309 260.648C542.626 261.864 541.709 262.771 540.557 263.368C539.405 263.944 538.104 264.232 536.653 264.232ZM537.261 260.84C538.264 260.84 539.16 260.637 539.949 260.232C540.738 259.805 541.346 259.229 541.773 258.504C542.221 257.757 542.445 256.904 542.445 255.944C542.445 254.984 542.221 254.141 541.773 253.416C541.346 252.669 540.738 252.104 539.949 251.72C539.16 251.315 538.264 251.112 537.261 251.112C536.258 251.112 535.352 251.315 534.541 251.72C533.752 252.104 533.133 252.669 532.685 253.416C532.258 254.141 532.045 254.984 532.045 255.944C532.045 256.904 532.258 257.757 532.685 258.504C533.133 259.229 533.752 259.805 534.541 260.232C535.352 260.637 536.258 260.84 537.261 260.84Z" fill="white"/>
<path d="M583.715 265.224C582.073 265.224 580.59 264.861 579.267 264.136C577.966 263.389 576.942 262.365 576.195 261.064C575.449 259.763 575.075 258.227 575.075 256.456C575.075 254.685 575.449 253.149 576.195 251.848C576.942 250.547 577.966 249.533 579.267 248.808C580.59 248.083 582.073 247.72 583.715 247.72C585.145 247.72 586.425 248.04 587.555 248.68C588.686 249.299 589.582 250.248 590.243 251.528C590.905 252.808 591.235 254.451 591.235 256.456C591.235 258.44 590.915 260.083 590.275 261.384C589.635 262.664 588.75 263.624 587.619 264.264C586.489 264.904 585.187 265.224 583.715 265.224ZM584.195 261.8C585.155 261.8 586.009 261.587 586.755 261.16C587.523 260.733 588.131 260.115 588.579 259.304C589.049 258.493 589.283 257.544 589.283 256.456C589.283 255.347 589.049 254.397 588.579 253.608C588.131 252.797 587.523 252.179 586.755 251.752C586.009 251.325 585.155 251.112 584.195 251.112C583.235 251.112 582.371 251.325 581.603 251.752C580.857 252.179 580.249 252.797 579.779 253.608C579.331 254.397 579.107 255.347 579.107 256.456C579.107 257.544 579.331 258.493 579.779 259.304C580.249 260.115 580.857 260.733 581.603 261.16C582.371 261.587 583.235 261.8 584.195 261.8ZM589.379 265V260.968L589.539 256.424L589.219 251.88V241.256H593.187V265H589.379Z" fill="white"/>
<path d="M606.452 265V247.912H610.452V265H606.452ZM608.468 245.096C607.721 245.096 607.103 244.861 606.612 244.392C606.143 243.923 605.908 243.357 605.908 242.696C605.908 242.013 606.143 241.448 606.612 241C607.103 240.531 607.721 240.296 608.468 240.296C609.215 240.296 609.823 240.52 610.292 240.968C610.783 241.395 611.028 241.939 611.028 242.6C611.028 243.304 610.794 243.901 610.324 244.392C609.855 244.861 609.236 245.096 608.468 245.096Z" fill="white"/>
<path d="M631.446 271.432C629.867 271.432 628.321 271.219 626.806 270.792C625.313 270.387 624.086 269.789 623.126 269L624.918 265.992C625.665 266.611 626.604 267.101 627.734 267.464C628.886 267.848 630.049 268.04 631.222 268.04C633.099 268.04 634.476 267.603 635.35 266.728C636.225 265.875 636.662 264.584 636.662 262.856V259.816L636.982 255.944L636.854 252.072V247.912H640.662V262.408C640.662 265.501 639.873 267.773 638.294 269.224C636.716 270.696 634.433 271.432 631.446 271.432ZM630.934 264.232C629.313 264.232 627.841 263.891 626.518 263.208C625.217 262.504 624.182 261.533 623.414 260.296C622.668 259.059 622.294 257.608 622.294 255.944C622.294 254.301 622.668 252.861 623.414 251.624C624.182 250.387 625.217 249.427 626.518 248.744C627.841 248.061 629.313 247.72 630.934 247.72C632.385 247.72 633.686 248.008 634.838 248.584C635.99 249.16 636.908 250.056 637.59 251.272C638.294 252.488 638.646 254.045 638.646 255.944C638.646 257.843 638.294 259.411 637.59 260.648C636.908 261.864 635.99 262.771 634.838 263.368C633.686 263.944 632.385 264.232 630.934 264.232ZM631.542 260.84C632.545 260.84 633.441 260.637 634.23 260.232C635.02 259.805 635.628 259.229 636.054 258.504C636.502 257.757 636.726 256.904 636.726 255.944C636.726 254.984 636.502 254.141 636.054 253.416C635.628 252.669 635.02 252.104 634.23 251.72C633.441 251.315 632.545 251.112 631.542 251.112C630.54 251.112 629.633 251.315 628.822 251.72C628.033 252.104 627.414 252.669 626.966 253.416C626.54 254.141 626.326 254.984 626.326 255.944C626.326 256.904 626.54 257.757 626.966 258.504C627.414 259.229 628.033 259.805 628.822 260.232C629.633 260.637 630.54 260.84 631.542 260.84Z" fill="white"/>
<path d="M653.921 265V247.912H657.921V265H653.921ZM655.937 245.096C655.19 245.096 654.572 244.861 654.081 244.392C653.612 243.923 653.377 243.357 653.377 242.696C653.377 242.013 653.612 241.448 654.081 241C654.572 240.531 655.19 240.296 655.937 240.296C656.684 240.296 657.292 240.52 657.761 240.968C658.252 241.395 658.497 241.939 658.497 242.6C658.497 243.304 658.262 243.901 657.793 244.392C657.324 244.861 656.705 245.096 655.937 245.096Z" fill="white"/>
<path d="M677.603 265.224C675.726 265.224 674.275 264.744 673.251 263.784C672.227 262.803 671.715 261.363 671.715 259.464V244.136H675.715V259.368C675.715 260.179 675.918 260.808 676.323 261.256C676.75 261.704 677.336 261.928 678.083 261.928C678.979 261.928 679.726 261.693 680.323 261.224L681.443 264.072C680.974 264.456 680.398 264.744 679.715 264.936C679.032 265.128 678.328 265.224 677.603 265.224ZM668.899 251.24V248.04H680.291V251.24H668.899Z" fill="white"/>
<path d="M703.261 265V261.544L703.037 260.808V254.76C703.037 253.587 702.685 252.68 701.981 252.04C701.277 251.379 700.211 251.048 698.781 251.048C697.821 251.048 696.872 251.197 695.933 251.496C695.016 251.795 694.237 252.211 693.597 252.744L692.029 249.832C692.947 249.128 694.035 248.605 695.293 248.264C696.573 247.901 697.896 247.72 699.261 247.72C701.736 247.72 703.645 248.317 704.989 249.512C706.355 250.685 707.037 252.509 707.037 254.984V265H703.261ZM697.885 265.224C696.605 265.224 695.485 265.011 694.525 264.584C693.565 264.136 692.819 263.528 692.285 262.76C691.773 261.971 691.517 261.085 691.517 260.104C691.517 259.144 691.741 258.28 692.189 257.512C692.659 256.744 693.416 256.136 694.461 255.688C695.507 255.24 696.893 255.016 698.621 255.016H703.581V257.672H698.909C697.544 257.672 696.627 257.896 696.157 258.344C695.688 258.771 695.453 259.304 695.453 259.944C695.453 260.669 695.741 261.245 696.317 261.672C696.893 262.099 697.693 262.312 698.717 262.312C699.699 262.312 700.573 262.088 701.341 261.64C702.131 261.192 702.696 260.531 703.037 259.656L703.709 262.056C703.325 263.059 702.632 263.837 701.629 264.392C700.648 264.947 699.4 265.224 697.885 265.224Z" fill="white"/>
<path d="M720.171 265V241.256H724.171V265H720.171Z" fill="white"/>
</svg>
