<svg width="279" height="352" viewBox="0 0 279 352" fill="none" xmlns="http://www.w3.org/2000/svg">
<path d="M127.369 293.997C129.195 296.06 133.095 299.339 139.5 299.549C145.905 299.339 149.805 296.06 151.631 293.997C146.447 293.614 141.778 292.378 139.5 291.692C137.222 292.378 132.553 293.614 127.369 293.997Z" fill="white"/>
<path d="M101.664 210.429L114.608 259.315C117.305 254.906 120.75 250.585 124.885 246.71L109.328 202.765L101.664 210.429Z" fill="#EC8115"/>
<path d="M139.5 280.878C141.332 280.625 152.804 279.304 153.711 277.739C155.573 274.53 155.123 269.849 154.171 266.816C153.271 263.947 145.283 262.382 139.5 262.115C133.717 262.382 125.729 263.947 124.829 266.816C123.877 269.849 123.427 274.53 125.289 277.739C126.196 279.304 137.668 280.625 139.5 280.878Z" fill="#231F20"/>
<path d="M121.531 265.781C123.407 259.8 135.719 258.814 139.474 258.652V258.65C139.482 258.65 139.491 258.651 139.5 258.651C139.508 258.651 139.518 258.65 139.526 258.65V258.652C143.281 258.814 155.593 259.8 157.469 265.781C158.686 269.662 159.124 275.296 156.702 279.473C155.25 281.976 152.907 283.645 149.925 284.299C142.496 285.927 140.689 286.656 140.633 286.678H138.367C138.311 286.656 136.504 285.927 129.075 284.299C126.093 283.645 123.75 281.976 122.298 279.473C119.876 275.296 120.313 269.662 121.531 265.781ZM117.054 286.645C125.021 291.896 137.343 288.684 139.474 288.067V288.052C139.481 288.054 139.492 288.057 139.5 288.059C139.508 288.057 139.519 288.054 139.526 288.052V288.067C141.656 288.684 153.978 291.896 161.945 286.645C164.003 285.289 165.004 281.993 164.693 277.6C163.825 265.336 156.606 249.366 139.5 240.542C122.394 249.366 115.175 265.336 114.306 277.6C113.995 281.993 114.997 285.289 117.054 286.645Z" fill="white"/>
<path d="M171.359 279.858C171.531 285.12 170.006 289.071 167.014 291.042C163.818 293.148 159.827 293.959 155.835 294.087L155.863 294.104C155.654 294.461 150.712 302.689 139.526 303.009V303.013C139.517 303.013 139.509 303.011 139.5 303.011C139.491 303.011 139.483 303.013 139.474 303.013V303.009C128.288 302.689 123.345 294.461 123.137 294.104L123.165 294.087C119.173 293.959 115.182 293.148 111.986 291.042C108.994 289.071 107.469 285.12 107.641 279.858C87.7444 258.579 59.69 258.137 43.0568 260.235C52.5693 275.665 107.26 337.586 139.028 345.301H139.972C171.74 337.586 226.431 275.665 235.943 260.235C219.31 258.137 191.256 258.579 171.359 279.858Z" fill="white"/>
<path d="M108.165 275.305C108.369 274.222 108.627 273.116 108.945 271.989L108.793 272.069C88.6109 239.797 70.2408 227.749 49.7911 218.987C38.8913 214.315 28.0153 211.815 19.733 210.476L31.2672 250.614C37.0902 250.233 45.1869 250.11 54.3442 251.132C70.1517 252.894 91.9372 258.562 108.165 275.305Z" fill="white"/>
<path d="M164.392 259.315L177.336 210.429L169.672 202.765L154.115 246.71C158.25 250.585 161.695 254.906 164.392 259.315Z" fill="#EC8115"/>
<path d="M170.207 272.069L170.055 271.989C170.373 273.116 170.63 274.222 170.835 275.305C187.063 258.562 208.848 252.894 224.656 251.132C233.813 250.11 241.91 250.233 247.732 250.614L259.267 210.476C250.985 211.815 240.109 214.315 229.208 218.987C208.759 227.749 190.389 239.797 170.207 272.069Z" fill="white"/>
<path d="M112.906 200.019L127.44 244.451C131.017 241.462 135.036 238.812 139.474 236.697V236.671C139.482 236.675 139.491 236.68 139.5 236.684C139.509 236.68 139.518 236.675 139.526 236.671V236.697C143.964 238.812 147.983 241.462 151.56 244.451L166.094 200.019C154.168 195.935 143.677 186.517 139.5 182.421C135.323 186.517 124.833 195.935 112.906 200.019Z" fill="#EC8115"/>
<path d="M249.731 93.4596C251.789 71.6838 252.432 44.3108 238.961 13.3982C214.36 51.3458 227.261 82.6574 227.261 82.6574L219.196 74.0154C219.196 88.7068 225.602 107.207 225.602 107.207C229.325 112.569 234.866 120.552 241.307 130.521C243.555 124.992 247.953 112.261 249.731 93.4596Z" fill="#EC8115"/>
<path d="M101.639 178.994C100.855 178.231 100.021 177.545 99.1397 176.96C98.587 177.256 98.2068 177.831 98.2068 178.502C98.2068 179.471 98.9927 180.257 99.9625 180.257C100.76 180.257 101.425 179.722 101.639 178.994Z" fill="white"/>
<path d="M92.0774 184.96C87.3536 182.115 86.2698 177.255 86.0632 174.402C85.3732 174.517 84.7309 174.658 84.1515 174.808C84.8586 177.878 87.1998 185.275 93.5079 186.847C101.135 188.747 105.351 185.872 106.287 185.127C106.183 184.95 106.078 184.774 105.972 184.598C104.163 185.439 101.201 186.533 98.015 186.533C96.0461 186.533 93.9937 186.115 92.0774 184.96Z" fill="white"/>
<path d="M51.7384 82.6574C51.7384 82.6574 64.6396 51.3458 40.0391 13.3982C26.5682 44.3108 27.2111 71.6838 29.2692 93.4596C31.0464 112.261 35.4452 124.992 37.6928 130.521C44.1343 120.552 49.6747 112.569 53.3976 107.207C53.3976 107.207 59.8039 88.7068 59.8039 74.0154L51.7384 82.6574Z" fill="#EC8115"/>
<path d="M180.793 178.502C180.793 177.831 180.413 177.256 179.86 176.96C178.978 177.545 178.145 178.231 177.361 178.994C177.575 179.722 178.24 180.257 179.038 180.257C180.007 180.257 180.793 179.471 180.793 178.502Z" fill="white"/>
<path d="M224.405 105.481C224.787 106.033 225.189 106.613 225.602 107.207C211.507 86.3741 213.147 61.0524 213.147 61.0524L218.044 66.2376C212.57 42.9042 236.048 7.1122 236.048 7.1122C227.706 11.3316 189.87 32.0378 167.461 61.6629L167.123 62.1101L166.358 62.2809C168.688 67.6902 172.809 77.0018 175.339 81.1872C178.916 87.1021 190.401 102.505 190.401 102.505C189.823 101.968 176.207 89.3037 172.381 82.9757C169.588 78.3545 164.234 68.1935 161.693 63.3255L139.526 68.2866V68.2985L139.5 68.2928L139.474 68.2985V68.2866L117.307 63.3255C114.766 68.1935 109.413 78.3545 106.619 82.9757C102.792 89.3037 89.1773 101.968 88.5996 102.505C88.5996 102.505 100.084 87.1021 103.661 81.1872C106.191 77.0018 110.312 67.6902 112.642 62.2809L111.877 62.1101L111.539 61.6629C89.1302 32.0378 51.2943 11.3316 42.9525 7.1122C42.9525 7.1122 66.43 42.9042 60.9566 66.2376L65.8535 61.0524C65.8535 61.0524 67.4926 86.3741 53.3976 107.207C53.8107 106.613 54.2132 106.033 54.5956 105.481L47.4273 122.281C36.3907 139.494 19.8233 164.862 12.4535 198.715C20.0543 200.197 31.1556 203.032 43.6516 208.375C64.1036 217.119 92.0207 234.48 110.384 267.739C111.025 266.11 111.78 264.462 112.635 262.813L97.3392 213.175C92.0655 216.044 81.9527 221.554 81.9527 221.554C85.5434 216.168 92.2681 211.94 96.1215 209.823C95.7936 209.829 95.4627 209.839 95.1404 209.839C85.9548 209.839 78.8909 207.307 74.0836 202.276C65.235 193.017 67.4713 178.873 67.5711 178.276C67.5711 178.276 67.6165 178.718 67.7323 179.48C68.496 184.233 72.6173 201.493 92.1035 200.188C103.286 199.439 106.975 193.681 107.856 188.06C107.807 187.96 107.757 187.859 107.706 187.758C106.298 188.679 102.799 190.537 97.4505 190.537C95.8968 190.537 94.1894 190.38 92.3316 189.998C86.7441 188.846 83.7577 184.539 82.1746 180.648L63.6984 171.888L67.6897 170.473C81.6242 165.53 93.1777 165.801 102.03 171.28C107.924 174.928 111.618 180.263 113.913 185.119L112.425 166.749L119.008 190.887C127.93 186.78 135.34 181.725 137.363 179.662L138.665 163.121L139.5 167.293L140.335 163.121L141.637 179.662C143.66 181.725 151.07 186.78 159.992 190.887L166.575 166.749L165.087 185.119C167.383 180.263 171.076 174.928 176.971 171.28C185.822 165.801 197.376 165.53 211.31 170.473L215.302 171.888L196.826 180.648C195.242 184.539 192.256 188.846 186.668 189.998C184.811 190.38 183.103 190.537 181.55 190.537C176.201 190.537 172.702 188.679 171.293 187.758C171.243 187.859 171.193 187.96 171.144 188.06C172.025 193.681 175.714 199.439 186.897 200.188C206.383 201.493 210.504 184.233 211.268 179.48C211.384 178.718 211.429 178.276 211.429 178.276C211.528 178.873 213.765 193.017 204.917 202.276C200.109 207.307 193.045 209.839 183.86 209.839C183.537 209.839 183.206 209.829 182.879 209.823C186.732 211.94 193.457 216.168 197.047 221.554C197.047 221.554 186.935 216.044 181.661 213.175L166.365 262.813C167.22 264.462 167.976 266.11 168.616 267.739C186.979 234.48 214.897 217.119 235.349 208.375C247.845 203.032 258.946 200.197 266.547 198.715C259.177 164.862 242.609 139.494 231.573 122.281L224.405 105.481Z" fill="#EC8115"/>
<path d="M172.714 185.127C173.649 185.872 177.865 188.747 185.492 186.847C191.8 185.275 194.141 177.878 194.849 174.808C194.269 174.658 193.627 174.517 192.937 174.402C192.73 177.255 191.647 182.115 186.923 184.96C185.006 186.115 182.954 186.533 180.985 186.533C177.799 186.533 174.837 185.439 173.028 184.598C172.922 184.774 172.817 184.95 172.714 185.127Z" fill="white"/>
<path d="M139.5 302.357V347.161C139.5 347.161 125.314 308.43 104.603 291.692C83.8916 274.955 53.534 279.494 53.534 279.494L37.3621 255.662L77.3662 258.65L91.8357 265.073C91.8357 265.073 71.3315 234.951 19.7331 227.858L12.4535 206.154C12.4535 206.154 83.1353 220.292 110.183 269.848L108.946 285.547L124.885 292.924C124.885 292.924 128.908 300.441 139.5 302.357Z" fill="#CECDCD"/>
<path d="M63.6984 171.888L79.6358 182.421C79.6358 182.421 81.0543 188.705 88.431 192.393C88.431 192.393 73.2767 193.945 67.7323 179.48C67.7323 179.48 61.4779 203.696 80.0613 213.436L75.2382 223.744L93.2542 221.616L114.251 263.464L102.475 218.495L108.007 213.436L126.875 247.86L114.912 206.153C114.912 206.153 131.461 198.257 139.5 185.017V169.317L135.149 137.425C135.149 137.425 131.567 173.918 131.083 174.402C130.599 174.886 123.233 180.257 122.855 180.257C122.477 180.257 110.088 153.24 110.088 153.24L110.656 179.437L105.359 188.137L99.9226 188.421L91.2681 187.486L82.7566 176.96L63.6984 171.888Z" fill="#D6631C"/>
<path d="M9.74664 189.84C9.74664 189.84 68.5338 200.083 106.286 247.591L107.535 246.678L114.251 263.464L110.183 269.848L84.9315 237.977L47.7647 214.05L3.78859 198.54L9.74664 189.84Z" fill="#D6631C"/>
<path d="M37.9294 133.238C37.9294 133.238 53.6989 110.35 59.2081 93.9436C64.7174 77.5374 62.1872 68.8347 62.1872 68.8347C62.1872 68.8347 57.364 71.9595 56.7966 71.9595C56.2291 71.9595 58.357 20.7447 40.341 12.3751C40.341 12.3751 7.85546 55.3581 37.9294 133.238Z" fill="#D6631C"/>
<path d="M72.3539 21.5011C72.3539 21.5011 93.5379 43.631 95.2402 61.9784C96.9425 80.3252 79.3521 112.101 79.3521 112.101C79.3521 112.101 110.372 93.9436 121.531 63.1133L113.209 59.3302C113.209 59.3302 82.5677 26.9865 72.3539 21.5011Z" fill="#D6631C"/>
<path d="M139.5 300.276V283.324C139.5 283.324 125.645 287.864 119.072 281.291C112.5 274.718 120.814 257.781 120.814 257.781C120.814 257.781 110.088 271.858 112.168 280.878C114.249 289.897 124.357 292.679 124.357 292.679C124.357 292.679 127.962 300.276 139.5 300.276Z" fill="#CECDCD"/>
<path d="M139.5 302.357V347.161C139.5 347.161 153.686 308.43 174.397 291.692C195.108 274.955 225.466 279.494 225.466 279.494L241.638 255.662L201.634 258.65L187.164 265.073C187.164 265.073 207.669 234.951 259.267 227.858L266.547 206.154C266.547 206.154 195.865 220.292 168.818 269.848L170.055 285.547L154.115 292.924C154.115 292.924 150.092 300.441 139.5 302.357Z" fill="#CECDCD"/>
<path d="M215.302 171.888L199.364 182.421C199.364 182.421 197.946 188.705 190.569 192.393C190.569 192.393 205.723 193.945 211.268 179.48C211.268 179.48 217.522 203.696 198.939 213.436L203.762 223.744L185.746 221.616L164.749 263.464L176.525 218.495L170.993 213.436L152.125 247.86L164.087 206.153C164.087 206.153 147.539 198.257 139.5 185.017V169.317L143.851 137.425C143.851 137.425 147.433 173.918 147.917 174.402C148.401 174.886 155.767 180.257 156.145 180.257C156.523 180.257 168.912 153.24 168.912 153.24L168.344 179.437L173.641 188.137L179.077 188.421L187.732 187.486L196.243 176.96L215.302 171.888Z" fill="#D6631C"/>
<path d="M269.253 189.84C269.253 189.84 210.466 200.083 172.714 247.591L171.465 246.678L164.749 263.464L168.818 269.848L194.068 237.977L231.235 214.05L275.211 198.54L269.253 189.84Z" fill="#D6631C"/>
<path d="M241.07 133.238C241.07 133.238 225.301 110.35 219.792 93.9436C214.282 77.5374 216.813 68.8347 216.813 68.8347C216.813 68.8347 221.636 71.9595 222.203 71.9595C222.771 71.9595 220.643 20.7447 238.659 12.3751C238.659 12.3751 271.144 55.3581 241.07 133.238Z" fill="#D6631C"/>
<path d="M206.646 21.5011C206.646 21.5011 185.462 43.631 183.76 61.9784C182.058 80.3252 199.648 112.101 199.648 112.101C199.648 112.101 168.628 93.9436 157.469 63.1133L165.791 59.3302C165.791 59.3302 196.432 26.9865 206.646 21.5011Z" fill="#D6631C"/>
<path d="M139.5 300.276V283.324C139.5 283.324 153.355 287.864 159.928 281.291C166.5 274.718 158.186 257.781 158.186 257.781C158.186 257.781 168.912 271.858 166.832 280.878C164.751 289.897 154.643 292.679 154.643 292.679C154.643 292.679 151.038 300.276 139.5 300.276Z" fill="#CECDCD"/>
<path d="M98.2068 178.502C98.2068 177.831 98.587 177.256 99.1397 176.96C100.021 177.545 100.855 178.231 101.639 178.994C101.425 179.722 100.76 180.257 99.9625 180.257C98.9927 180.257 98.2068 179.471 98.2068 178.502ZM105.972 184.598C106.078 184.774 106.183 184.95 106.287 185.127C105.351 185.872 101.135 188.747 93.5079 186.847C87.1998 185.275 84.8586 177.878 84.1515 174.808C84.7309 174.658 85.3732 174.517 86.0632 174.402C86.2698 177.255 87.3536 182.115 92.0774 184.96C93.9937 186.115 96.0461 186.533 98.015 186.533C101.201 186.533 104.163 185.439 105.972 184.598ZM177.361 178.994C178.145 178.231 178.978 177.545 179.86 176.96C180.413 177.256 180.793 177.831 180.793 178.502C180.793 179.471 180.007 180.257 179.038 180.257C178.24 180.257 177.575 179.722 177.361 178.994ZM180.985 186.533C182.954 186.533 185.006 186.115 186.923 184.96C191.647 182.115 192.73 177.255 192.937 174.402C193.627 174.517 194.269 174.658 194.849 174.808C194.141 177.878 191.8 185.275 185.492 186.847C177.865 188.747 173.649 185.872 172.714 185.127C172.817 184.95 172.922 184.774 173.028 184.598C174.837 185.439 177.799 186.533 180.985 186.533ZM235.349 208.375C214.897 217.119 186.979 234.48 168.616 267.739C167.976 266.11 167.22 264.462 166.365 262.813L181.661 213.175C186.935 216.044 197.047 221.554 197.047 221.554C193.457 216.168 186.732 211.94 182.879 209.823C183.206 209.829 183.537 209.839 183.86 209.839C193.045 209.839 200.109 207.307 204.917 202.276C213.765 193.017 211.528 178.873 211.429 178.276C211.429 178.276 211.384 178.718 211.268 179.48C210.504 184.233 206.383 201.493 186.897 200.188C175.714 199.439 172.025 193.681 171.144 188.06C171.193 187.96 171.243 187.859 171.293 187.758C172.702 188.679 176.201 190.537 181.55 190.537C183.103 190.537 184.811 190.38 186.668 189.998C192.256 188.846 195.242 184.539 196.826 180.648L215.302 171.888L211.31 170.473C197.376 165.53 185.822 165.801 176.971 171.28C171.076 174.928 167.383 180.263 165.087 185.119L166.575 166.749L159.992 190.887C151.07 186.78 143.66 181.725 141.637 179.662L140.335 163.121L139.5 167.293L138.665 163.121L137.363 179.662C135.34 181.725 127.93 186.78 119.008 190.887L112.425 166.749L113.913 185.119C111.618 180.263 107.924 174.928 102.03 171.28C93.1777 165.801 81.6242 165.53 67.6897 170.473L63.6984 171.888L82.1746 180.648C83.7577 184.539 86.7441 188.846 92.3316 189.998C94.1894 190.38 95.8968 190.537 97.4505 190.537C102.799 190.537 106.298 188.679 107.706 187.758C107.757 187.859 107.807 187.96 107.856 188.06C106.975 193.681 103.286 199.439 92.1035 200.188C72.6173 201.493 68.496 184.233 67.7323 179.48C67.6165 178.718 67.5711 178.276 67.5711 178.276C67.4713 178.873 65.235 193.017 74.0836 202.276C78.8909 207.307 85.9548 209.839 95.1404 209.839C95.4627 209.839 95.7936 209.829 96.1215 209.823C92.2681 211.94 85.5434 216.168 81.9527 221.554C81.9527 221.554 92.0655 216.044 97.3392 213.175L112.635 262.813C111.78 264.462 111.025 266.11 110.384 267.739C92.0207 234.48 64.1036 217.119 43.6516 208.375C31.1556 203.032 20.0543 200.197 12.4535 198.715C19.8233 164.862 36.3907 139.494 47.4273 122.281L54.5956 105.481C54.2132 106.033 53.8107 106.613 53.3976 107.207C49.6747 112.569 44.1343 120.552 37.6928 130.521C35.4452 124.992 31.0464 112.261 29.2692 93.4596C27.2111 71.6838 26.5682 44.3108 40.0391 13.3982C64.6396 51.3458 51.7384 82.6574 51.7384 82.6574L59.8039 74.0154C59.8039 88.7068 53.3976 107.207 53.3976 107.207C67.4926 86.3741 65.8535 61.0524 65.8535 61.0524L60.9566 66.2376C66.43 42.9042 42.9525 7.1122 42.9525 7.1122C51.2943 11.3316 89.1302 32.0378 111.539 61.6629L111.877 62.1101L112.642 62.2809C110.312 67.6902 106.191 77.0018 103.661 81.1872C100.084 87.1021 88.5996 102.505 88.5996 102.505C89.1773 101.968 102.792 89.3037 106.619 82.9757C109.413 78.3545 114.766 68.1935 117.307 63.3255L139.474 68.2866V68.2985L139.5 68.2928L139.526 68.2985V68.2866L161.693 63.3255C164.234 68.1935 169.588 78.3545 172.381 82.9757C176.207 89.3037 189.823 101.968 190.401 102.505C190.401 102.505 178.916 87.1021 175.339 81.1872C172.809 77.0018 168.688 67.6902 166.358 62.2809L167.123 62.1101L167.461 61.6629C189.87 32.0378 227.706 11.3316 236.048 7.1122C236.048 7.1122 212.57 42.9042 218.044 66.2376L213.147 61.0524C213.147 61.0524 211.507 86.3741 225.602 107.207C225.602 107.207 219.196 88.7068 219.196 74.0154L227.261 82.6574C227.261 82.6574 214.36 51.3458 238.961 13.3982C252.432 44.3108 251.789 71.6838 249.731 93.4596C247.953 112.261 243.555 124.992 241.307 130.521C234.866 120.552 229.325 112.569 225.602 107.207C225.189 106.613 224.787 106.033 224.405 105.481L231.573 122.281C242.609 139.494 259.177 164.862 266.547 198.715C258.946 200.197 247.845 203.032 235.349 208.375ZM247.732 250.614C241.91 250.233 233.813 250.11 224.656 251.132C208.848 252.894 187.063 258.562 170.835 275.305C170.63 274.222 170.373 273.116 170.055 271.989L170.207 272.069C190.389 239.797 208.759 227.749 229.208 218.987C240.109 214.315 250.985 211.815 259.267 210.476L247.732 250.614ZM151.631 293.997C149.805 296.06 145.905 299.339 139.5 299.549C133.095 299.339 129.195 296.06 127.369 293.997C132.553 293.614 137.222 292.378 139.5 291.692C141.778 292.378 146.447 293.614 151.631 293.997ZM114.306 277.6C115.175 265.336 122.394 249.366 139.5 240.542C156.606 249.366 163.825 265.336 164.693 277.6C165.004 281.993 164.003 285.289 161.945 286.645C153.978 291.896 141.656 288.684 139.526 288.067V288.052C139.519 288.054 139.508 288.057 139.5 288.059C139.492 288.057 139.481 288.054 139.474 288.052V288.067C137.343 288.684 125.021 291.896 117.054 286.645C114.997 285.289 113.995 281.993 114.306 277.6ZM124.885 246.71C120.75 250.585 117.305 254.906 114.608 259.315L101.664 210.429L109.328 202.765L124.885 246.71ZM169.672 202.765L177.336 210.429L164.392 259.315C161.695 254.906 158.25 250.585 154.115 246.71L169.672 202.765ZM151.56 244.451C147.983 241.462 143.964 238.812 139.526 236.697V236.671C139.518 236.675 139.509 236.68 139.5 236.684C139.491 236.68 139.482 236.675 139.474 236.671V236.697C135.036 238.812 131.017 241.462 127.44 244.451L112.906 200.019C124.833 195.935 135.323 186.517 139.5 182.421C143.677 186.517 154.168 195.935 166.094 200.019L151.56 244.451ZM139.972 345.301H139.028C107.26 337.586 52.5693 275.665 43.0568 260.235C59.69 258.137 87.7444 258.579 107.641 279.858C107.469 285.12 108.994 289.071 111.986 291.042C115.182 293.148 119.173 293.959 123.165 294.087L123.137 294.104C123.345 294.461 128.288 302.689 139.474 303.009V303.013C139.483 303.013 139.491 303.011 139.5 303.011C139.509 303.011 139.517 303.013 139.526 303.013V303.009C150.712 302.689 155.654 294.461 155.863 294.104L155.835 294.087C159.827 293.959 163.818 293.148 167.014 291.042C170.006 289.071 171.531 285.12 171.359 279.858C191.256 258.579 219.31 258.137 235.943 260.235C226.431 275.665 171.74 337.586 139.972 345.301ZM31.2672 250.614L19.733 210.476C28.0153 211.815 38.8913 214.315 49.7911 218.987C70.2408 227.749 88.6109 239.797 108.793 272.069L108.945 271.989C108.627 273.116 108.369 274.222 108.165 275.305C91.9372 258.562 70.1517 252.894 54.3442 251.132C45.1869 250.11 37.0902 250.233 31.2672 250.614ZM246.857 139.263C248.486 134.448 253.551 118.166 255.627 96.324C257.915 72.245 256.95 36.2488 239.352 1.50598L238.59 7.62939e-06L237.066 0.727447C236.584 0.957257 188.856 23.9939 163.316 57.4015L139.5 64.6675L115.684 57.4015C90.1441 23.9939 42.4151 0.957257 41.9344 0.727447L40.4103 7.62939e-06L39.6477 1.50598C22.0504 36.2488 21.0847 72.245 23.3731 96.324C25.4488 118.166 30.5143 134.448 32.1434 139.263C21.9789 155.572 10.3869 175.868 0.293926 198.179L0 198.828L3.77229 208.941L8.98587 209.32L20.6438 254.17L20.7907 254.368C20.9071 254.524 23.519 258.001 28.1532 263.588L32.8198 262.287C50.2065 283.316 89.891 333.012 137.794 351.308H141.206C189.109 333.012 228.794 283.316 246.18 262.287L250.847 263.588C255.481 258.001 258.093 254.524 258.209 254.368L258.356 254.17L270.014 209.32L275.228 208.941L279 198.828L278.706 198.179C268.613 175.868 257.021 155.572 246.857 139.263Z" fill="#231F20"/>
<path d="M124.829 266.816C125.729 263.947 133.717 262.382 139.5 262.115C145.283 262.382 153.271 263.947 154.171 266.816C155.123 269.849 155.573 274.53 153.711 277.739C152.804 279.304 141.332 280.625 139.5 280.878C137.668 280.625 126.196 279.304 125.289 277.739C123.427 274.53 123.877 269.849 124.829 266.816ZM129.075 284.299C136.504 285.927 138.311 286.656 138.367 286.678H140.633C140.689 286.656 142.496 285.927 149.925 284.299C152.907 283.645 155.25 281.976 156.702 279.473C159.124 275.296 158.686 269.662 157.469 265.781C155.593 259.8 143.281 258.814 139.526 258.652V258.65C139.518 258.65 139.508 258.651 139.5 258.651C139.491 258.651 139.482 258.65 139.474 258.65V258.652C135.719 258.814 123.407 259.8 121.531 265.781C120.313 269.662 119.876 275.296 122.298 279.473C123.75 281.976 126.093 283.645 129.075 284.299Z" fill="#231F20"/>
</svg>
